<svg xmlns="http://www.w3.org/2000/svg" version="1.1" xmlns:xlink="http://www.w3.org/1999/xlink" xmlns:svgjs="http://svgjs.dev/svgjs" width="1000" height="623" viewBox="0 0 1000 623"><g transform="matrix(1,0,0,1,-0.6060606060606233,0.2522267206477409)"><svg viewBox="0 0 396 247" data-background-color="#052f5e" preserveAspectRatio="xMidYMid meet" height="623" width="1000" xmlns="http://www.w3.org/2000/svg" xmlns:xlink="http://www.w3.org/1999/xlink"><g id="tight-bounds" transform="matrix(1,0,0,1,0.2400000000000091,-0.09999999999999432)"><svg viewBox="0 0 395.52 247.2" height="247.2" width="395.52"><g><svg></svg></g><g><svg viewBox="0 0 395.52 247.2" height="247.2" width="395.52"><g transform="matrix(1,0,0,1,92.288,104.01010401188707)"><svg viewBox="0 0 210.944 39.17979197622585" height="39.17979197622585" width="210.944"><g><svg viewBox="0 0 210.944 39.17979197622585" height="39.17979197622585" width="210.944"><g><svg viewBox="0 0 210.944 39.17979197622585" height="39.17979197622585" width="210.944"><g><svg viewBox="0 0 210.944 39.17979197622585" height="39.17979197622585" width="210.944"><g><svg viewBox="0 0 210.944 39.17979197622585" height="39.17979197622585" width="210.944"><g><svg viewBox="0 0 210.944 39.17979197622585" height="39.17979197622585" width="210.944"><g transform="matrix(1,0,0,1,0,0)"><svg width="210.944" viewBox="4.699999809265137 -37 201.88999938964844 37.5" height="39.17979197622585" data-palette-color="#ffffff"><path d="M6.25 0L6.25 0Q5.55 0 5.13-0.45 4.7-0.9 4.7-1.5L4.7-1.5 4.7-33.5Q4.7-34.1 5.15-34.55 5.6-35 6.2-35L6.2-35 24.4-35Q25.05-35 25.48-34.58 25.9-34.15 25.9-33.5L25.9-33.5Q25.9-32.9 25.48-32.48 25.05-32.05 24.4-32.05L24.4-32.05 7.55-32.05 7.75-32.35 7.75-19.05 7.5-19.5 22.15-19.5Q22.8-19.5 23.23-19.07 23.65-18.65 23.65-18.05L23.65-18.05Q23.65-17.4 23.23-17 22.8-16.6 22.15-16.6L22.15-16.6 7.4-16.6 7.75-17 7.75-1.5Q7.75-0.9 7.33-0.45 6.9 0 6.25 0ZM35.55-35.5L35.55-1.5Q35.55-0.9 35.1-0.45 34.65 0 34.05 0L34.05 0Q33.4 0 32.97-0.45 32.55-0.9 32.55-1.5L32.55-1.5 32.55-35.5Q32.55-36.1 33-36.55 33.45-37 34.05-37L34.05-37Q34.7-37 35.12-36.55 35.55-36.1 35.55-35.5L35.55-35.5ZM64.5-25.55L64.5-25.55Q65.15-25.55 65.57-25.1 66-24.65 66-24L66-24 66-1.5Q66-0.9 65.55-0.45 65.09 0 64.5 0L64.5 0Q63.8 0 63.4-0.45 63-0.9 63-1.5L63-1.5 63-7.45 63.84-7.85Q63.84-6.45 63.07-5 62.3-3.55 60.95-2.3 59.59-1.05 57.77-0.28 55.95 0.5 53.8 0.5L53.8 0.5Q50.45 0.5 47.77-1.25 45.09-3 43.57-6.05 42.05-9.1 42.05-12.9L42.05-12.9Q42.05-16.8 43.59-19.78 45.15-22.75 47.8-24.45 50.45-26.15 53.75-26.15L53.75-26.15Q55.9-26.15 57.77-25.4 59.65-24.65 61.05-23.35 62.45-22.05 63.25-20.38 64.05-18.7 64.05-16.9L64.05-16.9 63-17.65 63-24Q63-24.65 63.4-25.1 63.8-25.55 64.5-25.55ZM54.09-2.3L54.09-2.3Q56.75-2.3 58.8-3.68 60.84-5.05 62.02-7.48 63.2-9.9 63.2-12.9L63.2-12.9Q63.2-15.85 62.02-18.2 60.84-20.55 58.8-21.95 56.75-23.35 54.09-23.35L54.09-23.35Q51.5-23.35 49.42-22 47.34-20.65 46.17-18.3 45-15.95 45-12.9L45-12.9Q45-9.9 46.15-7.48 47.3-5.05 49.37-3.68 51.45-2.3 54.09-2.3ZM85.34-25.75L85.34-25.75Q88.44-25.75 90.64-24.13 92.84-22.5 93.64-19.3L93.64-19.3 92.94-19.1 93.24-20Q93.89-21.5 95.42-22.83 96.94-24.15 98.89-24.95 100.84-25.75 102.84-25.75L102.84-25.75Q105.99-25.75 107.92-24.4 109.84-23.05 110.72-20.78 111.59-18.5 111.59-15.65L111.59-15.65 111.59-1.5Q111.59-0.9 111.17-0.45 110.74 0 110.09 0L110.09 0Q109.44 0 109.02-0.45 108.59-0.9 108.59-1.5L108.59-1.5 108.59-15.5Q108.59-17.55 107.94-19.25 107.29-20.95 105.89-21.95 104.49-22.95 102.14-22.95L102.14-22.95Q100.09-22.95 98.22-21.95 96.34-20.95 95.17-19.25 93.99-17.55 93.99-15.5L93.99-15.5 93.99-1.5Q93.99-0.9 93.57-0.45 93.14 0 92.49 0L92.49 0Q91.84 0 91.42-0.45 90.99-0.9 90.99-1.5L90.99-1.5 90.99-15.65Q90.99-17.7 90.39-19.35 89.79-21 88.44-21.98 87.09-22.95 84.79-22.95L84.79-22.95Q82.74-22.95 80.92-21.98 79.09-21 77.97-19.35 76.84-17.7 76.84-15.65L76.84-15.65 76.84-1.5Q76.84-0.9 76.39-0.45 75.94 0 75.34 0L75.34 0Q74.64 0 74.24-0.45 73.84-0.9 73.84-1.5L73.84-1.5 73.84-23.9Q73.84-24.5 74.27-24.95 74.69-25.4 75.34-25.4L75.34-25.4Q75.99-25.4 76.42-24.95 76.84-24.5 76.84-23.9L76.84-23.9 76.84-19.25 75.49-17.4Q75.64-18.9 76.47-20.4 77.29-21.9 78.64-23.1 79.99-24.3 81.72-25.03 83.44-25.75 85.34-25.75ZM130.79 0.5L130.79 0.5Q126.94 0.5 123.99-1.15 121.04-2.8 119.39-5.75 117.74-8.7 117.74-12.65L117.74-12.65Q117.74-16.9 119.42-19.9 121.09-22.9 123.77-24.53 126.44-26.15 129.44-26.15L129.44-26.15Q131.64-26.15 133.72-25.38 135.79-24.6 137.39-23.08 138.99-21.55 139.99-19.35 140.99-17.15 141.04-14.25L141.04-14.25Q141.04-13.65 140.59-13.23 140.14-12.8 139.54-12.8L139.54-12.8 119.49-12.8 118.89-15.5 138.59-15.5 137.94-14.9 137.94-15.9Q137.69-18.25 136.39-19.9 135.09-21.55 133.27-22.4 131.44-23.25 129.44-23.25L129.44-23.25Q127.94-23.25 126.37-22.65 124.79-22.05 123.52-20.78 122.24-19.5 121.44-17.53 120.64-15.55 120.64-12.85L120.64-12.85Q120.64-9.9 121.84-7.5 123.04-5.1 125.29-3.7 127.54-2.3 130.74-2.3L130.74-2.3Q132.44-2.3 133.84-2.8 135.24-3.3 136.31-4.13 137.39-4.95 138.09-5.85L138.09-5.85Q138.64-6.3 139.14-6.3L139.14-6.3Q139.69-6.3 140.06-5.9 140.44-5.5 140.44-5L140.44-5Q140.44-4.4 139.94-3.95L139.94-3.95Q138.44-2.15 136.04-0.83 133.64 0.5 130.79 0.5ZM179.19-17.5L179.19-17.5Q179.19-13.55 177.96-10.28 176.74-7 174.49-4.58 172.24-2.15 169.16-0.83 166.09 0.5 162.44 0.5L162.44 0.5Q158.79 0.5 155.71-0.83 152.64-2.15 150.39-4.58 148.14-7 146.91-10.28 145.69-13.55 145.69-17.5L145.69-17.5Q145.69-21.45 146.91-24.73 148.14-28 150.39-30.43 152.64-32.85 155.71-34.18 158.79-35.5 162.44-35.5L162.44-35.5Q166.09-35.5 169.16-34.18 172.24-32.85 174.49-30.43 176.74-28 177.96-24.73 179.19-21.45 179.19-17.5ZM175.99-17.5L175.99-17.5Q175.99-21.95 174.26-25.33 172.54-28.7 169.49-30.6 166.44-32.5 162.44-32.5L162.44-32.5Q158.49-32.5 155.41-30.6 152.34-28.7 150.61-25.33 148.89-21.95 148.89-17.5L148.89-17.5Q148.89-13.05 150.61-9.68 152.34-6.3 155.41-4.4 158.49-2.5 162.44-2.5L162.44-2.5Q166.44-2.5 169.49-4.4 172.54-6.3 174.26-9.68 175.99-13.05 175.99-17.5ZM197.59-26.15L197.59-26.15Q200.89-26.15 202.86-24.83 204.84-23.5 205.71-21.23 206.59-18.95 206.59-16.2L206.59-16.2 206.59-1.5Q206.59-0.9 206.14-0.45 205.69 0 205.09 0L205.09 0Q204.39 0 203.99-0.45 203.59-0.9 203.59-1.5L203.59-1.5 203.59-16.05Q203.59-18.05 202.94-19.7 202.29-21.35 200.81-22.35 199.34-23.35 196.94-23.35L196.94-23.35Q194.79-23.35 192.86-22.35 190.94-21.35 189.74-19.7 188.54-18.05 188.54-16.05L188.54-16.05 188.54-1.5Q188.54-0.9 188.09-0.45 187.64 0 187.04 0L187.04 0Q186.34 0 185.94-0.45 185.54-0.9 185.54-1.5L185.54-1.5 185.54-23.9Q185.54-24.5 185.96-24.95 186.39-25.4 187.04-25.4L187.04-25.4Q187.69-25.4 188.11-24.95 188.54-24.5 188.54-23.9L188.54-23.9 188.54-19.7 187.39-17.9Q187.49-19.5 188.41-20.98 189.34-22.45 190.79-23.63 192.24-24.8 194.01-25.48 195.79-26.15 197.59-26.15Z" opacity="1" transform="matrix(1,0,0,1,0,0)" fill="#ffffff" class="undefined-text-0" data-fill-palette-color="primary" id="text-0"></path></svg></g></svg></g></svg></g></svg></g></svg></g></svg></g></svg></g><g mask="url(#c6fefe7e-3a44-4473-becf-84d53e41e6d1)"><g transform="matrix(2.5568820647423385, 0, 0, 2.5568820647423385, 108.96772896465896, 1.0000000000000142)"><svg xmlns="http://www.w3.org/2000/svg" xmlns:xlink="http://www.w3.org/1999/xlink" version="1.1" x="0" y="0" viewBox="16.99843978881836 1.1019515991210938 69.45355224609375 95.8980484008789" enable-background="new 0 0 100 100" xml:space="preserve" height="95.8980484008789" width="69.45355224609375" class="icon-none" data-fill-palette-color="accent" id="none"><g fill="#bf2051" data-fill-palette-color="accent"><path d="M50.196 26.835c-0.844 9.971 7.794 23.122 7.794 23.122 8.725 12.759 6.67 28.568 6.67 28.568 10.789-16.841 1.598-41.057 1.598-41.057 0.082 11.375-3.113 11.122-3.113 11.122C54.852 41.601 50.196 26.835 50.196 26.835M55.51 1.156c-7.135 10.74 5.633 31.599 5.633 31.599-0.574-7.015 7.209-17.175 7.209-17.175-0.82 5.919 5.018 18.895 5.018 18.895 3.686 7.661 1.652 21.438 1.652 21.438 2.213-4.812 11.43-8.185 11.43-8.185-5.971 7.287-6.463 23.415-6.463 23.415C76.305 96.76 53.941 97 53.941 97c3.367-2.552 2.43-13.7 2.43-13.7-0.887 4.283-5.18 5.423-5.18 5.423 1.205-5.839-6.656-18.829-6.656-18.829 0.751 4.215-2.238 8.872-2.238 8.872-2.616 6.763 1.622 13.726 1.622 13.726-4.122-1.663-9.487-14.943-9.487-14.943-1.396 10.666 6.734 18.436 6.734 18.436-21.847-0.343-24.114-30.553-24.114-30.553-0.631-15.085 4.521-25.917 4.521-25.917 4.063-12.181-0.222-17.823-0.222-17.823 4.512 0.223 10.811 9.938 10.811 9.938C31.505 25 56.42-0.218 55.51 1.156" fill="#bf2051" data-fill-palette-color="accent"></path></g></svg></g></g></svg></g><defs><mask id="448243ae-804a-426a-bdcc-2370d30c32b8"><rect width="640" height="400" fill="white"></rect><rect width="348.05760000000004" height="85.55845555984641" fill="black" x="145.97119999999998" y="157.2207722200768" id="transform-me" transform="matrix(1,0,0,1,-122.24000000000001,-76.4)"></rect></mask><mask id="f630b981-db07-4988-a387-1aa9a064284f"><rect width="640" height="400" fill="white"></rect><rect width="348.05760000000004" height="85.55845555984641" fill="black" x="145.97119999999998" y="157.2207722200768" id="transform-me" transform="matrix(1,0,0,1,-122.24000000000001,-76.4)"></rect></mask><mask id="78a1e5d9-0a33-4dad-8a92-4bda0e70114e"><rect width="640" height="400" fill="white"></rect><rect width="348.05760000000004" height="85.55845555984641" fill="black" x="145.97119999999998" y="157.2207722200768" id="transform-me" transform="matrix(1,0,0,1,-122.24000000000001,-76.4)"></rect></mask><mask id="04e7f683-f746-448b-a8e9-e8d6643c8aa5"><rect width="640" height="400" fill="white"></rect><rect width="348.05760000000004" height="85.55845555984641" fill="black" x="145.97119999999998" y="157.2207722200768" id="transform-me" transform="matrix(1,0,0,1,-122.24000000000001,-76.4)"></rect></mask><mask id="2ece2767-59cc-4718-9fa1-eb452862fcc4"><rect width="640" height="400" fill="white"></rect><rect width="348.05760000000004" height="85.55845555984641" fill="black" x="145.97119999999998" y="157.2207722200768" id="transform-me" transform="matrix(1,0,0,1,-122.24000000000001,-76.4)"></rect></mask><mask id="8ea5cd90-8bfe-442d-a93c-2ab63a061372"><rect width="640" height="400" fill="white"></rect><rect width="348.05760000000004" height="85.55845555984641" fill="black" x="145.97119999999998" y="157.2207722200768" id="transform-me" transform="matrix(1,0,0,1,-122.24000000000001,-76.4)"></rect></mask><mask id="66d497d4-8584-416b-9d74-dc0dc65e3f6e"><rect width="640" height="400" fill="white"></rect><rect width="348.05760000000004" height="85.55845555984641" fill="black" x="145.97119999999998" y="157.2207722200768" id="transform-me" transform="matrix(1,0,0,1,-122.24000000000001,-76.4)"></rect></mask><mask id="3fe99841-6d11-4416-9385-309c53346a88"><rect width="640" height="400" fill="white"></rect><rect width="348.05760000000004" height="85.55845555984641" fill="black" x="145.97119999999998" y="157.2207722200768" id="transform-me" transform="matrix(1,0,0,1,-122.24000000000001,-76.4)"></rect></mask><mask id="9fc88db9-edc0-472e-8bb9-569cf3ef90d2"><rect width="640" height="400" fill="white"></rect><rect width="348.05760000000004" height="85.55845555984641" fill="black" x="145.97119999999998" y="157.2207722200768" id="transform-me" transform="matrix(1,0,0,1,-122.24000000000001,-76.4)"></rect></mask><mask id="8dd07c1e-8276-467e-947f-3b23f4d96139"><rect width="640" height="400" fill="white"></rect><rect width="348.05760000000004" height="85.55845555984641" fill="black" x="145.97119999999998" y="157.2207722200768" id="transform-me" transform="matrix(1,0,0,1,-122.24000000000001,-76.4)"></rect></mask><mask id="370e6b32-1a1c-4795-8742-069ae67ae0df"><rect width="640" height="400" fill="white"></rect><rect width="348.05760000000004" height="85.55845555984641" fill="black" x="145.97119999999998" y="157.2207722200768" id="transform-me" transform="matrix(1,0,0,1,-122.24000000000001,-76.4)"></rect></mask><mask id="6e2cd2f7-ccec-46c6-a149-9231e0a294ec"><rect width="640" height="400" fill="white"></rect><rect width="348.05760000000004" height="85.55845555984641" fill="black" x="145.97119999999998" y="157.2207722200768" id="transform-me" transform="matrix(1,0,0,1,-122.24000000000001,-76.4)"></rect></mask><mask id="c8cc2fe0-2a12-4572-8425-b166e2438013"><rect width="640" height="400" fill="white"></rect><rect width="348.05760000000004" height="85.55845555984641" fill="black" x="145.97119999999998" y="157.2207722200768" id="transform-me" transform="matrix(1,0,0,1,-122.24000000000001,-76.4)"></rect></mask><mask id="00bbd9f9-37d7-46ff-a9ab-ac3c004ef2dd"><rect width="640" height="400" fill="white"></rect><rect width="348.05760000000004" height="85.55845555984641" fill="black" x="145.97119999999998" y="157.2207722200768" id="transform-me" transform="matrix(1,0,0,1,-122.24000000000001,-76.4)"></rect></mask><mask id="4c19d41c-f172-49af-b118-618beb2029bc"><rect width="640" height="400" fill="white"></rect><rect width="348.05760000000004" height="85.55845555984641" fill="black" x="145.97119999999998" y="157.2207722200768" id="transform-me" transform="matrix(1,0,0,1,-122.24000000000001,-76.4)"></rect></mask><mask id="be874191-0b16-4711-bb2d-f63b6b335382"><rect width="640" height="400" fill="white"></rect><rect width="348.05760000000004" height="85.55845555984641" fill="black" x="145.97119999999998" y="157.2207722200768" id="transform-me" transform="matrix(1,0,0,1,-122.24000000000001,-76.4)"></rect></mask><mask id="45b2b1ed-9906-484a-9258-afe8c82fab77"><rect width="640" height="400" fill="white"></rect><rect width="348.05760000000004" height="85.55845555984641" fill="black" x="145.97119999999998" y="157.2207722200768" id="transform-me" transform="matrix(1,0,0,1,-122.24000000000001,-76.4)"></rect></mask><mask id="5c425797-e77c-4a72-9781-c623a3b0a3a9"><rect width="640" height="400" fill="white"></rect><rect width="348.05760000000004" height="85.55845555984641" fill="black" x="145.97119999999998" y="157.2207722200768" id="transform-me" transform="matrix(1,0,0,1,-122.24000000000001,-76.4)"></rect></mask><mask id="40630170-1925-4397-b10a-cbd57f2af60e"><rect width="640" height="400" fill="white"></rect><rect width="348.05760000000004" height="85.55845555984641" fill="black" x="145.97119999999998" y="157.2207722200768" id="transform-me" transform="matrix(1,0,0,1,-122.24000000000001,-76.4)"></rect></mask><mask id="97b42a3c-b3ee-41f7-ac1a-3ba40a246914"><rect width="640" height="400" fill="white"></rect><rect width="348.05760000000004" height="85.55845555984641" fill="black" x="145.97119999999998" y="157.2207722200768" id="transform-me" transform="matrix(1,0,0,1,-122.24000000000001,-76.4)"></rect></mask><mask id="e58233cc-471a-4d25-89ed-e1038b3a82b2"><rect width="640" height="400" fill="white"></rect><rect width="348.05760000000004" height="85.55845555984641" fill="black" x="145.97119999999998" y="157.2207722200768" id="transform-me" transform="matrix(1,0,0,1,-122.24000000000001,-76.4)"></rect></mask><mask id="0d06b035-8bc5-48cc-8200-28aba3e1fa28"><rect width="640" height="400" fill="white"></rect><rect width="348.05760000000004" height="75.99327673167078" fill="black" x="145.97119999999998" y="162.0033616341646" id="transform-me" transform="matrix(1,0,0,1,-122.24000000000001,-76.4)"></rect></mask><mask id="7d8097eb-896c-4b4b-86c6-ee44246e3d6e"><rect width="640" height="400" fill="white"></rect><rect width="348.05760000000004" height="56.96548785230769" fill="black" x="145.97119999999998" y="171.51725607384617" id="transform-me" transform="matrix(1,0,0,1,-122.24000000000001,-76.4)"></rect></mask><mask id="013847da-8113-4884-9241-33aac78fb9be"><rect width="640" height="400" fill="white"></rect><rect width="348.05760000000004" height="102.81691604593912" fill="black" x="145.97119999999998" y="148.59154197703043" id="transform-me" transform="matrix(1,0,0,1,-122.24000000000001,-76.4)"></rect></mask><mask id="3baed0d6-e356-4fae-8668-bfb30f407fdd"><rect width="640" height="400" fill="white"></rect><rect width="348.05760000000004" height="108.57885418636242" fill="black" x="145.97119999999998" y="145.71057290681878" id="transform-me" transform="matrix(1,0,0,1,-122.24000000000001,-76.4)"></rect></mask><mask id="df84ec52-1b5a-4f98-bdc6-c43c925f2711"><rect width="640" height="400" fill="white"></rect><rect width="348.05760000000004" height="107.75933447715495" fill="black" x="145.97119999999998" y="146.12033276142253" id="transform-me" transform="matrix(1,0,0,1,-122.24000000000001,-76.4)"></rect></mask><mask id="074dbbeb-b454-40c4-9a37-fbbc4735e3fa"><rect width="640" height="400" fill="white"></rect><rect width="348.05760000000004" height="56.96548785230769" fill="black" x="145.97119999999998" y="171.51725607384617" id="transform-me" transform="matrix(1,0,0,1,-122.24000000000001,-76.4)"></rect></mask><mask id="975a95c7-5741-4520-901a-8bd4a17b7ef9"><rect width="640" height="400" fill="white"></rect><rect width="348.05760000000004" height="84.26980716408474" fill="black" x="145.97119999999998" y="157.86509641795763" id="transform-me" transform="matrix(1,0,0,1,-122.24000000000001,-76.4)"></rect></mask><mask id="fefa791a-c0c9-43d4-b7e6-7cd801fc948d"><rect width="640" height="400" fill="white"></rect><rect width="348.05760000000004" height="79.41196182788102" fill="black" x="145.97119999999998" y="160.2940190860595" id="transform-me" transform="matrix(1,0,0,1,-122.24000000000001,-76.4)"></rect></mask><mask id="00dd8510-2c8f-4e68-a2ea-a3b63c2008a0"><rect width="640" height="400" fill="white"></rect><rect width="348.05760000000004" height="77.41177385863062" fill="black" x="145.97119999999998" y="161.2941130706847" id="transform-me" transform="matrix(1,0,0,1,-122.24000000000001,-76.4)"></rect></mask><mask id="4e7ba515-8a8b-407a-9bc9-8b4b69f42370"><rect width="640" height="400" fill="white"></rect><rect width="348.05760000000004" height="75.92360251036057" fill="black" x="145.97119999999998" y="162.0381987448197" id="transform-me" transform="matrix(1,0,0,1,-122.24000000000001,-76.4)"></rect></mask><mask id="cfbaa637-d658-463d-8646-3bd17b88d8ad"><rect width="640" height="400" fill="white"></rect><rect width="348.05760000000004" height="79.41196182788102" fill="black" x="145.97119999999998" y="160.2940190860595" id="transform-me" transform="matrix(1,0,0,1,-122.24000000000001,-76.4)"></rect></mask><mask id="efc8f9de-abb8-4dfd-9522-18b7008d4be9"><rect width="640" height="400" fill="white"></rect><rect width="348.05760000000004" height="102.81691604593912" fill="black" x="145.97119999999998" y="148.59154197703043" id="transform-me" transform="matrix(1,0,0,1,-122.24000000000001,-76.4)"></rect></mask><mask id="a0aa668f-64f0-4b0b-849a-65356286b6ae"><rect width="640" height="400" fill="white"></rect><rect width="348.05760000000004" height="102.81691604593912" fill="black" x="145.97119999999998" y="148.59154197703043" id="transform-me" transform="matrix(1,0,0,1,-122.24000000000001,-76.4)"></rect></mask><mask id="c578977e-9c73-4bb0-b759-306c98c3f97e"><rect width="640" height="400" fill="white"></rect><rect width="348.05760000000004" height="70.96672540094357" fill="black" x="145.97119999999998" y="164.5166372995282" id="transform-me" transform="matrix(1,0,0,1,-122.24000000000001,-76.4)"></rect></mask><mask id="07490553-1f12-49b6-a1fc-e1d673c8f2c6"><rect width="640" height="400" fill="white"></rect><rect width="348.05760000000004" height="69.3763219281702" fill="black" x="145.97119999999998" y="165.3118390359149" id="transform-me" transform="matrix(1,0,0,1,-122.24000000000001,-76.4)"></rect></mask><mask id="a3251ecd-d699-4d6f-9e70-ca1a7a4bd655"><rect width="640" height="400" fill="white"></rect><rect width="348.05760000000004" height="107.75933447715495" fill="black" x="145.97119999999998" y="146.12033276142253" id="transform-me" transform="matrix(1,0,0,1,-122.24000000000001,-76.4)"></rect></mask><mask id="45779a30-6974-482f-932d-00a8f4b6c4a7"><rect width="640" height="400" fill="white"></rect><rect width="348.05760000000004" height="95.08963947305391" fill="black" x="145.97119999999998" y="152.45518026347304" id="transform-me" transform="matrix(1,0,0,1,-122.24000000000001,-76.4)"></rect></mask><mask id="ac36f0e2-127d-4267-97e6-193641b70b1a"><rect width="640" height="400" fill="white"></rect><rect width="348.05760000000004" height="72.78939711220112" fill="black" x="145.97119999999998" y="163.60530144389944" id="transform-me" transform="matrix(1,0,0,1,-122.24000000000001,-76.4)"></rect></mask><mask id="8c88879d-5505-43cd-9242-4f3662d22178"><rect width="640" height="400" fill="white"></rect><rect width="348.05760000000004" height="122.12716133924826" fill="black" x="145.97119999999998" y="138.93641933037588" id="transform-me" transform="matrix(1,0,0,1,-122.24000000000001,-76.4)"></rect></mask><mask id="e0654ac8-0ac7-437c-86d8-03392ce406bb"><rect width="640" height="400" fill="white"></rect><rect width="348.05760000000004" height="54.18173861179967" fill="black" x="145.97119999999998" y="172.90913069410016" id="transform-me" transform="matrix(1,0,0,1,-122.24000000000001,-76.4)"></rect></mask><mask id="e3946801-bb4f-496b-82dc-d3ac0a590239"><rect width="640" height="400" fill="white"></rect><rect width="435.072" height="67.72717326474958" fill="black" x="102.464" y="166.1364133676252" id="transform-me" transform="matrix(1,0,0,1,-122.24000000000001,-76.4)"></rect></mask><mask id="1050bad2-d5a4-46e9-bffd-5e2dd546eff5"><rect width="640" height="400" fill="white"></rect><rect width="232.0384" height="36.12115907453311" fill="black" x="203.9808" y="181.93942046273344" id="transform-me" transform="matrix(1,0,0,1,-122.24000000000001,-76.4)"></rect></mask><mask id="bd0be016-8122-467f-b3c6-fb4f905ed0e1"><rect width="640" height="400" fill="white"></rect><rect width="174.02880000000002" height="27.090869305899837" fill="black" x="232.98559999999998" y="186.45456534705008" id="transform-me" transform="matrix(1,0,0,1,-122.24000000000001,-76.4)"></rect></mask><mask id="2a8a0329-8ced-4703-bfaa-50c2c400e91b"><rect width="640" height="400" fill="white"></rect><rect width="232.0384" height="36.12115907453311" fill="black" x="203.9808" y="181.93942046273344" id="transform-me" transform="matrix(1,0,0,1,-122.24000000000001,-76.4)"></rect></mask><mask id="01c15fec-fd94-49c9-8873-2d1d6d03ebc3"><rect width="640" height="400" fill="white"></rect><rect width="348.05760000000004" height="54.18173861179967" fill="black" x="145.97119999999998" y="172.90913069410016" id="transform-me" transform="matrix(1,0,0,1,-122.24000000000001,-76.4)"></rect></mask><mask id="5c5f3189-0108-4b44-bff9-c2a2400990f7"><rect width="640" height="400" fill="white"></rect><rect width="232.0384" height="36.12115907453311" fill="black" x="203.9808" y="181.93942046273344" id="transform-me" transform="matrix(1,0,0,1,-122.24000000000001,-76.4)"></rect></mask><mask id="c5edb8a2-2dca-4204-bd03-271d4cd71b17"><rect width="640" height="400" fill="white"></rect><rect width="232.0384" height="36.267635794218975" fill="black" x="203.9808" y="181.86618210289052" id="transform-me" transform="matrix(1,0,0,1,-122.24000000000001,-76.4)"></rect></mask><mask id="816a7771-b470-4cc5-81de-41c1c481c032"><rect width="640" height="400" fill="white"></rect><rect width="232.0384" height="31.365086616125065" fill="black" x="203.9808" y="184.31745669193748" id="transform-me" transform="matrix(1,0,0,1,-122.24000000000001,-76.4)"></rect></mask><mask id="c8bc0595-0b3b-450a-9d84-4a00d8e8e549"><rect width="640" height="400" fill="white"></rect><rect width="232.0384" height="37.930254311722265" fill="black" x="203.9808" y="181.03487284413887" id="transform-me" transform="matrix(1,0,0,1,-122.24000000000001,-76.4)"></rect></mask><mask id="392a977b-aff4-4834-a0f3-f05f72192d4f"><rect width="640" height="400" fill="white"></rect><rect width="232.0384" height="37.930254311722265" fill="black" x="203.9808" y="181.03487284413887" id="transform-me" transform="matrix(1,0,0,1,-122.24000000000001,-76.4)"></rect></mask><mask id="90d19fac-f717-4571-8272-e76d5b640e56"><rect width="640" height="400" fill="white"></rect><rect width="232.0384" height="37.930254311722265" fill="black" x="203.9808" y="181.03487284413887" id="transform-me" transform="matrix(1,0,0,1,-122.24000000000001,-76.4)"></rect></mask><mask id="85f834aa-21e7-4641-96fd-76586cbea668"><rect width="640" height="400" fill="white"></rect><rect width="232.0384" height="31.365086616125065" fill="black" x="203.9808" y="184.31745669193748" id="transform-me" transform="matrix(1,0,0,1,-122.24000000000001,-76.4)"></rect></mask><mask id="3d5226a5-5f4a-4e70-b19b-6163ba94bcb6"><rect width="640" height="400" fill="white"></rect><rect width="232.0384" height="36.267635794218975" fill="black" x="203.9808" y="181.86618210289052" id="transform-me" transform="matrix(1,0,0,1,-122.24000000000001,-76.4)"></rect></mask><mask id="a1869d59-85da-4ea6-b82a-d158df50bc40"><rect width="640" height="400" fill="white"></rect><rect width="232.0384" height="36.12115907453311" fill="black" x="203.9808" y="181.93942046273344" id="transform-me" transform="matrix(1,0,0,1,-122.24000000000001,-76.4)"></rect></mask><mask id="27774858-a108-4810-937f-8fbf7912b4ce"><rect width="640" height="400" fill="white"></rect><rect width="232.0384" height="69.35524130771194" fill="black" x="203.9808" y="165.32237934614403" id="transform-me" transform="matrix(1,0,0,1,-122.24000000000001,-76.4)"></rect></mask><mask id="e2c17c3f-09ac-4bb4-b6ae-c622170be2bb"><rect width="640" height="400" fill="white"></rect><rect width="232.0384" height="62.13712681988037" fill="black" x="203.9808" y="168.9314365900598" id="transform-me" transform="matrix(1,0,0,1,-122.24000000000001,-76.4)"></rect></mask><mask id="812ed4c0-018e-4e5d-90f7-f9226b9fae34"><rect width="640" height="400" fill="white"></rect><rect width="232.0384" height="57.67860911738484" fill="black" x="203.9808" y="171.16069544130758" id="transform-me" transform="matrix(1,0,0,1,-122.24000000000001,-76.4)"></rect></mask><mask id="097d6b59-2a66-41b8-afbc-717d104b0cb3"><rect width="640" height="400" fill="white"></rect><rect width="174.02880000000002" height="43.25895683803863" fill="black" x="232.98559999999998" y="178.3705215809807" id="transform-me" transform="matrix(1,0,0,1,-122.24000000000001,-76.4)"></rect></mask><mask id="175da534-a6da-44a2-8214-37a0065fc082"><rect width="640" height="400" fill="white"></rect><rect width="232.0384" height="57.67860911738484" fill="black" x="203.9808" y="171.16069544130758" id="transform-me" transform="matrix(1,0,0,1,-122.24000000000001,-76.4)"></rect></mask><mask id="4ff97961-99ba-4856-b27f-abdc072aa2df"><rect width="640" height="400" fill="white"></rect><rect width="232.0384" height="57.67860911738484" fill="black" x="203.9808" y="171.16069544130758" id="transform-me" transform="matrix(1,0,0,1,-122.24000000000001,-76.4)"></rect></mask><mask id="e5f5821f-b250-47db-a372-29649bea6505"><rect width="640" height="400" fill="white"></rect><rect width="232.0384" height="57.67860911738484" fill="black" x="203.9808" y="171.16069544130758" id="transform-me" transform="matrix(1,0,0,1,-122.24000000000001,-76.4)"></rect></mask><mask id="9d831f33-560f-40c6-8c16-fd74f70e53cf"><rect width="640" height="400" fill="white"></rect><rect width="232.0384" height="57.67860911738484" fill="black" x="203.9808" y="171.16069544130758" id="transform-me" transform="matrix(1,0,0,1,-122.24000000000001,-76.4)"></rect></mask><mask id="ce278616-0404-4f9e-9b4a-6006ae32a0f0"><rect width="640" height="400" fill="white"></rect><rect width="232.0384" height="57.67860911738484" fill="black" x="203.9808" y="171.16069544130758" id="transform-me" transform="matrix(1,0,0,1,-122.24000000000001,-76.4)"></rect></mask><mask id="77f054a4-fe4c-40f5-8fd4-a64da074f146"><rect width="640" height="400" fill="white"></rect><rect width="232.0384" height="57.67860911738484" fill="black" x="203.9808" y="171.16069544130758" id="transform-me" transform="matrix(1,0,0,1,-122.24000000000001,-76.4)"></rect></mask><mask id="5b930939-90f6-4a88-b350-472a2bf8506c"><rect width="640" height="400" fill="white"></rect><rect width="232.0384" height="57.67860911738484" fill="black" x="203.9808" y="171.16069544130758" id="transform-me" transform="matrix(1,0,0,1,-122.24000000000001,-76.4)"></rect></mask><mask id="ff3eeeb7-a8d3-40ce-a777-426130564a2d"><rect width="640" height="400" fill="white"></rect><rect width="232.0384" height="57.67860911738484" fill="black" x="203.9808" y="171.16069544130758" id="transform-me" transform="matrix(1,0,0,1,-122.24000000000001,-76.4)"></rect></mask><mask id="bc14454d-6d7c-44a1-94ff-a9682e74d390"><rect width="640" height="400" fill="white"></rect><rect width="232.0384" height="57.67860911738484" fill="black" x="203.9808" y="171.16069544130758" id="transform-me" transform="matrix(1,0,0,1,-122.24000000000001,-76.4)"></rect></mask><mask id="0d78d3c8-50a3-48d6-82a3-d0a847dcc103"><rect width="640" height="400" fill="white"></rect><rect width="232.0384" height="57.67860911738484" fill="black" x="203.9808" y="171.16069544130758" id="transform-me" transform="matrix(1,0,0,1,-122.24000000000001,-76.4)"></rect></mask><mask id="0900bd11-b9d2-4c83-8541-e4e11a794073"><rect width="640" height="400" fill="white"></rect><rect width="232.0384" height="57.67860911738484" fill="black" x="203.9808" y="171.16069544130758" id="transform-me" transform="matrix(1,0,0,1,-122.24000000000001,-76.4)"></rect></mask><mask id="c6fefe7e-3a44-4473-becf-84d53e41e6d1"><rect width="640" height="400" fill="white"></rect><rect width="232.0384" height="57.67860911738484" fill="black" x="203.9808" y="171.16069544130758" id="transform-me" transform="matrix(1,0,0,1,-122.24000000000001,-76.4)"></rect></mask></defs></svg><rect width="395.52" height="247.2" fill="none" stroke="none" visibility="hidden"></rect></g></svg></g></svg>